<svg xmlns="http://www.w3.org/2000/svg" viewBox="0 0 512 512" width="512" height="512">
  <defs>
    <linearGradient id="totemHull" x1="0" y1="0" x2="0" y2="1">
      <stop offset="0%" stop-color="#2fe0c9"></stop>
      <stop offset="100%" stop-color="#0e9488"></stop>
    </linearGradient>
    <linearGradient id="totemFur" x1="0" y1="0" x2="0" y2="1">
      <stop offset="0%" stop-color="#d99b5c"></stop>
      <stop offset="100%" stop-color="#a0522d"></stop>
    </linearGradient>
  </defs>

  
  <g stroke="#1a1a1a" stroke-width="8" stroke-linejoin="round" stroke-linecap="round">
    <path d="M40 420 C4 440 -6 470 16 486 C30 472 44 472 54 482 C58 462 78 448 100 448 C82 430 60 416 40 420 Z" fill="#eafcff"></path>
    <path d="M472 420 C508 440 518 470 496 486 C482 472 468 472 458 482 C454 462 434 448 412 448 C430 430 452 416 472 420 Z" fill="#eafcff"></path>
    <path d="M160 452 C142 470 142 490 162 498 C168 484 182 480 196 486 C196 466 210 454 228 454 C214 438 178 432 160 452 Z" fill="#c7f3f5"></path>
    <path d="M352 452 C370 470 370 490 350 498 C344 484 330 480 316 486 C316 466 302 454 284 454 C298 438 334 432 352 452 Z" fill="#c7f3f5"></path>
  </g>

  
  <path d="M100 372 C92 396 100 416 122 426 L256 436 L390 426 C412 416 420 396 412 372 C368 400 256 408 256 408 C256 408 148 400 100 372 Z" fill="#0b6f66" stroke="#1a1a1a" stroke-width="10" stroke-linejoin="round"></path>
  <path d="M108 332 C90 366 86 402 98 428 C144 456 368 456 414 428 C426 402 422 366 404 332 C388 300 322 280 256 280 C190 280 124 300 108 332 Z" fill="url(#totemHull)" stroke="#1a1a1a" stroke-width="10" stroke-linejoin="round"></path>
  <path d="M200 292 C176 328 162 380 158 424 L198 430 C202 380 216 328 236 292 Z" fill="#e6ff2b" stroke="#1a1a1a" stroke-width="6" stroke-linejoin="round"></path>
  <path d="M312 292 C336 328 350 380 354 424 L314 430 C310 380 296 328 276 292 Z" fill="#e6ff2b" stroke="#1a1a1a" stroke-width="6" stroke-linejoin="round"></path>

  
  <path d="M212 268 C208 240 226 220 256 220 C286 220 304 240 300 268 C280 278 232 278 212 268 Z" fill="#2fe0c9" stroke="#1a1a1a" stroke-width="8" stroke-linejoin="round"></path>
  <rect x="132" y="228" width="52" height="26" rx="13" fill="#e6ff2b" stroke="#1a1a1a" stroke-width="7"></rect>
  <rect x="328" y="228" width="52" height="26" rx="13" fill="#e6ff2b" stroke="#1a1a1a" stroke-width="7"></rect>

  
  <rect x="180" y="252" width="152" height="34" rx="17" fill="#0b3a52" stroke="#1a1a1a" stroke-width="8"></rect>
  <rect x="182" y="220" width="148" height="90" rx="52" fill="url(#totemFur)" stroke="#1a1a1a" stroke-width="10"></rect>
  <rect x="150" y="264" width="42" height="58" rx="20" fill="#8B5A2B" stroke="#1a1a1a" stroke-width="8"></rect>
  <rect x="320" y="264" width="42" height="58" rx="20" fill="#8B5A2B" stroke="#1a1a1a" stroke-width="8"></rect>

  
  <path d="M204 158 L308 158 C328 158 336 184 334 208 C332 234 318 256 288 266 L224 266 C194 256 180 234 178 208 C176 184 184 158 204 158 Z" fill="url(#totemFur)" stroke="#1a1a1a" stroke-width="10" stroke-linejoin="round"></path>
  <circle cx="200" cy="168" r="24" fill="#8B5A2B" stroke="#1a1a1a" stroke-width="8"></circle>
  <circle cx="312" cy="168" r="24" fill="#8B5A2B" stroke="#1a1a1a" stroke-width="8"></circle>
  <path d="M300 196 L346 190 L352 226 L306 234 Z" fill="#ff6fb0" stroke="#1a1a1a" stroke-width="8" stroke-linejoin="round"></path>
  <rect x="228" y="152" width="56" height="16" rx="8" fill="#8B5A2B" stroke="#1a1a1a" stroke-width="6"></rect>

  
  <g stroke="#1a1a1a" stroke-width="6" stroke-linecap="round">
    <line x1="240" y1="170" x2="234" y2="150"></line>
    <line x1="272" y1="170" x2="278" y2="150"></line>
  </g>

  <g stroke="#1a1a1a" stroke-width="10" stroke-linejoin="round">
    <path d="M214 118 C160 108 108 78 78 30 C70 18 76 6 90 4 C112 32 148 56 184 66 C210 74 218 96 214 118 Z" fill="#ff5fa8"></path>
    <path d="M266 118 C320 108 372 78 402 30 C410 18 404 6 390 4 C368 32 332 56 296 66 C270 74 262 96 266 118 Z" fill="#ff5fa8"></path>
  </g>

  <path d="M226 138 C218 106 240 78 256 78 C272 78 294 106 286 138 C292 164 278 190 256 194 C234 190 220 164 226 138 Z" fill="#ff7fb0" stroke="#1a1a1a" stroke-width="9" stroke-linejoin="round"></path>
  <path d="M280 96 C294 74 294 46 280 26 C296 24 314 34 320 52 C326 70 314 86 296 94 Z" fill="#ff7fb0" stroke="#1a1a1a" stroke-width="9" stroke-linejoin="round"></path>
  <circle cx="304" cy="32" r="26" fill="#ff7fb0" stroke="#1a1a1a" stroke-width="9"></circle>
  <circle cx="298" cy="30" r="14" fill="#ffffff" stroke="#1a1a1a" stroke-width="6"></circle>
  <circle cx="302" cy="32" r="6" fill="#1a1a1a"></circle>
  <path d="M324 34 C342 34 356 42 360 54 C348 60 332 58 322 48 Z" fill="#ff9a3d" stroke="#1a1a1a" stroke-width="7" stroke-linejoin="round"></path>
</svg>